<svg width="17" height="19" viewBox="0 0 17 19" fill="none" xmlns="http://www.w3.org/2000/svg">
<path d="M12.5977 1.55742e-08C13.1201 -6.41539e-05 13.623 0.198169 14.0048 0.554638C14.3866 0.911106 14.6188 1.39923 14.6546 1.92035L14.6592 2.06053V11.3398C14.5486 11.4131 14.4445 11.4986 14.3467 11.5963L11.2234 14.7187L10.3915 13.885C10.0258 13.5181 9.53487 13.303 9.01722 13.283H11.2234C11.4057 13.283 11.5804 13.2106 11.7093 13.0818C11.8382 12.9529 11.9106 12.7781 11.9106 12.5959C11.9106 12.4136 11.8382 12.2389 11.7093 12.11C11.5804 11.9811 11.4057 11.9087 11.2234 11.9087H6.63877C6.45652 11.9087 6.28175 11.9811 6.15288 12.11C6.02401 12.2389 5.95162 12.4136 5.95162 12.5959C5.95162 12.7781 6.02401 12.9529 6.15288 13.0818C6.28175 13.2106 6.45652 13.283 6.63877 13.283H8.84955C8.44929 13.2993 8.06243 13.4318 7.73626 13.6643C7.4101 13.8969 7.15876 14.2194 7.01297 14.5926C6.86718 14.9657 6.83326 15.3732 6.91536 15.7653C6.99746 16.1574 7.19202 16.517 7.47526 16.8003L8.99523 18.3212H2.06144C1.5391 18.3213 1.0362 18.123 0.654391 17.7666C0.272582 17.4101 0.040333 16.922 0.00458111 16.4009L1.55742e-08 16.2616V2.06144C-6.41539e-05 1.5391 0.198169 1.0362 0.554638 0.654391C0.911106 0.272582 1.39923 0.040333 1.92035 0.00458111L2.06144 1.55742e-08H12.5977ZM4.58099 5.26814C4.58099 5.02515 4.48446 4.79211 4.31264 4.62029C4.14082 4.44847 3.90778 4.35194 3.66479 4.35194C3.4218 4.35194 3.18876 4.44847 3.01694 4.62029C2.84512 4.79211 2.74859 5.02515 2.74859 5.26814C2.74859 5.51113 2.84512 5.74417 3.01694 5.91599C3.18876 6.08781 3.4218 6.18433 3.66479 6.18433C3.90778 6.18433 4.14082 6.08781 4.31264 5.91599C4.48446 5.74417 4.58099 5.51113 4.58099 5.26814ZM6.63877 4.58007C6.45652 4.58007 6.28175 4.65247 6.15288 4.78133C6.02401 4.9102 5.95162 5.08498 5.95162 5.26722C5.95162 5.44946 6.02401 5.62424 6.15288 5.75311C6.28175 5.88197 6.45652 5.95437 6.63877 5.95437H11.2234C11.4057 5.95437 11.5804 5.88197 11.7093 5.75311C11.8382 5.62424 11.9106 5.44946 11.9106 5.26722C11.9106 5.08498 11.8382 4.9102 11.7093 4.78133C11.5804 4.65247 11.4057 4.58007 11.2234 4.58007H6.63877ZM5.95162 8.93201C5.95162 9.31132 6.25946 9.61916 6.63877 9.61916H11.2234C11.3137 9.61916 11.403 9.60139 11.4864 9.56685C11.5697 9.53232 11.6455 9.48171 11.7093 9.4179C11.7731 9.35409 11.8237 9.27834 11.8583 9.19497C11.8928 9.1116 11.9106 9.02225 11.9106 8.93201C11.9106 8.84177 11.8928 8.75242 11.8583 8.66905C11.8237 8.58568 11.7731 8.50993 11.7093 8.44612C11.6455 8.38232 11.5697 8.3317 11.4864 8.29717C11.403 8.26264 11.3137 8.24486 11.2234 8.24486H6.63877C6.45652 8.24486 6.28175 8.31726 6.15288 8.44612C6.02401 8.57499 5.95162 8.74977 5.95162 8.93201ZM4.58099 8.93201C4.58099 8.68902 4.48446 8.45598 4.31264 8.28416C4.14082 8.11234 3.90778 8.01581 3.66479 8.01581C3.4218 8.01581 3.18876 8.11234 3.01694 8.28416C2.84512 8.45598 2.74859 8.68902 2.74859 8.93201C2.74859 9.175 2.84512 9.40804 3.01694 9.57986C3.18876 9.75168 3.4218 9.84821 3.66479 9.84821C3.90778 9.84821 4.14082 9.75168 4.31264 9.57986C4.48446 9.40804 4.58099 9.175 4.58099 8.93201ZM4.58099 12.595C4.58099 12.352 4.48446 12.1189 4.31264 11.9471C4.14082 11.7753 3.90778 11.6788 3.66479 11.6788C3.4218 11.6788 3.18876 11.7753 3.01694 11.9471C2.84512 12.1189 2.74859 12.352 2.74859 12.595C2.74859 12.838 2.84512 13.071 3.01694 13.2428C3.18876 13.4146 3.4218 13.5112 3.66479 13.5112C3.90778 13.5112 4.14082 13.4146 4.31264 13.2428C4.48446 13.071 4.58099 12.838 4.58099 12.595ZM11.2234 16.6638L15.3188 12.5684C15.3822 12.5028 15.4581 12.4505 15.5419 12.4145C15.6258 12.3785 15.716 12.3596 15.8072 12.3589C15.8984 12.3581 15.9889 12.3756 16.0734 12.4101C16.1578 12.4447 16.2345 12.4958 16.299 12.5603C16.3635 12.6249 16.4144 12.7016 16.449 12.7861C16.4835 12.8706 16.5008 12.9611 16.5 13.0523C16.4991 13.1435 16.4801 13.2337 16.4441 13.3175C16.408 13.4013 16.3557 13.4771 16.29 13.5405L11.709 18.1215L11.6623 18.1645C11.5304 18.274 11.3625 18.3303 11.1913 18.3224C11.0201 18.3144 10.858 18.2428 10.7369 18.1215L8.44643 15.8301C8.31764 15.701 8.24539 15.5261 8.24556 15.3438C8.24573 15.1615 8.31831 14.9868 8.44734 14.858C8.57637 14.7292 8.75127 14.6569 8.93357 14.6571C9.11588 14.6573 9.29064 14.7299 9.41943 14.8589L11.2234 16.6638Z" fill="#0D52AF"/>
</svg>
