<svg width="12" height="21" viewBox="0 0 12 21" fill="none" xmlns="http://www.w3.org/2000/svg">
<path d="M10.7538 17.3366L8.14305 11.2395C7.88663 10.6427 7.67684 9.62329 7.67684 8.97371C7.67684 8.32413 8.07545 7.79265 8.56263 7.79265C9.04982 7.79265 9.44842 7.39327 9.44842 6.90687C9.44842 6.42046 8.91695 6.02108 8.26737 6.02108H2.95263C2.30305 6.02108 1.77158 6.4189 1.77158 6.90687C1.77158 7.39483 2.17018 7.79265 2.65737 7.79265C3.14455 7.79265 3.54316 8.32413 3.54316 8.97371C3.54316 9.62329 3.33337 10.6427 3.07695 11.2402L0.466205 17.3382C0.209793 17.9349 0 18.6902 0 19.0142C0 19.3382 0.265737 19.8712 0.590526 20.1953C0.915316 20.5193 1.71253 20.7858 2.36211 20.7858H8.85789C9.5067 20.7858 10.3031 20.5216 10.6295 20.1953C10.9558 19.8689 11.22 19.339 11.22 19.0142C11.22 18.6894 11.0102 17.9342 10.7538 17.3382V17.3366ZM6.4515 4.27281C6.4515 4.49599 6.54016 4.71003 6.69797 4.86784C6.85578 5.02565 7.06982 5.11431 7.293 5.11431C7.51618 5.11431 7.73022 5.02565 7.88803 4.86784C8.04584 4.71003 8.1345 4.49599 8.1345 4.27281C8.1344 4.04963 8.04564 3.83563 7.88775 3.67789C7.72987 3.52015 7.51579 3.43159 7.29261 3.4317C7.06943 3.4318 6.85543 3.52056 6.69769 3.67844C6.53996 3.83632 6.4514 4.04963 6.4515 4.27281ZM4.18652 4.40257C4.28956 4.40257 4.38838 4.36164 4.46123 4.28878C4.53409 4.21592 4.57503 4.1171 4.57503 4.01406C4.57503 3.91103 4.53409 3.81221 4.46123 3.73935C4.38838 3.66649 4.28956 3.62556 4.18652 3.62556C4.08348 3.62556 3.98467 3.66649 3.91181 3.73935C3.83895 3.81221 3.79802 3.91103 3.79802 4.01406C3.79802 4.1171 3.83895 4.21592 3.91181 4.28878C3.98467 4.36164 4.08348 4.40257 4.18652 4.40257ZM5.67605 2.46005C5.84267 2.46832 6.00925 2.44263 6.16564 2.38454C6.32204 2.32645 6.46499 2.23717 6.58581 2.12213C6.70663 2.00708 6.80281 1.86868 6.86849 1.71531C6.93417 1.56195 6.96798 1.39684 6.96788 1.23C6.96777 1.06317 6.93375 0.898098 6.86787 0.744819C6.802 0.59154 6.70565 0.453253 6.58468 0.338361C6.46372 0.223469 6.32065 0.13437 6.16418 0.0764773C6.00771 0.0185848 5.84111 -0.00689259 5.67449 0.00159317C5.36178 0.0210642 5.06827 0.159064 4.85378 0.387461C4.6393 0.615858 4.52 0.917456 4.5202 1.23077C4.5204 1.54409 4.64008 1.84554 4.85485 2.07366C5.06962 2.30179 5.36331 2.43942 5.67605 2.45849V2.46005Z" fill="#0D52AF"/>
</svg>
