<svg width="17" height="13" viewBox="0 0 17 13" fill="none" xmlns="http://www.w3.org/2000/svg">
<path d="M0.268388 5.4429C0.096539 5.6148 0 5.84792 0 6.09099C0 6.33405 0.096539 6.56717 0.268388 6.73907L5.45397 11.9247C5.53853 12.0122 5.63968 12.082 5.75152 12.1301C5.86335 12.1781 5.98364 12.2034 6.10535 12.2045C6.22707 12.2055 6.34777 12.1823 6.46043 12.1362C6.57308 12.0901 6.67543 12.0221 6.7615 11.936C6.84757 11.8499 6.91563 11.7476 6.96172 11.6349C7.00782 11.5223 7.03101 11.4016 7.02995 11.2799C7.02889 11.1582 7.00361 11.0379 6.95556 10.926C6.90752 10.8142 6.83769 10.713 6.75014 10.6285L3.1293 7.00765L15.2687 7.00765C15.5118 7.00765 15.745 6.91108 15.9169 6.73917C16.0888 6.56726 16.1854 6.3341 16.1854 6.09099C16.1854 5.84787 16.0888 5.61471 15.9169 5.4428C15.745 5.2709 15.5118 5.17432 15.2687 5.17432L3.1293 5.17432L6.75014 1.55348C6.91712 1.3806 7.00951 1.14905 7.00742 0.908702C7.00533 0.668355 6.90893 0.438443 6.73897 0.268485C6.56901 0.0985279 6.3391 0.00212288 6.09876 3.43323e-05C5.85841 -0.00205421 5.62686 0.0903406 5.45397 0.257318L0.268388 5.4429Z" fill="#242526"/>
</svg>
