<svg width="16" height="12" viewBox="0 0 16 12" fill="none" xmlns="http://www.w3.org/2000/svg">
<path d="M2.75 0C2.02065 0 1.32118 0.289731 0.805456 0.805456C0.289731 1.32118 0 2.02065 0 2.75V4H16V2.75C16 2.02065 15.7103 1.32118 15.1945 0.805456C14.6788 0.289731 13.9793 0 13.25 0H2.75ZM16 5H0V9.25C0 9.97935 0.289731 10.6788 0.805456 11.1945C1.32118 11.7103 2.02065 12 2.75 12H13.25C13.9793 12 14.6788 11.7103 15.1945 11.1945C15.7103 10.6788 16 9.97935 16 9.25V5ZM11.5 9H13.5C13.6326 9 13.7598 9.05268 13.8536 9.14645C13.9473 9.24021 14 9.36739 14 9.5C14 9.63261 13.9473 9.75979 13.8536 9.85355C13.7598 9.94732 13.6326 10 13.5 10H11.5C11.3674 10 11.2402 9.94732 11.1464 9.85355C11.0527 9.75979 11 9.63261 11 9.5C11 9.36739 11.0527 9.24021 11.1464 9.14645C11.2402 9.05268 11.3674 9 11.5 9Z" fill="#D58700"/>
</svg>
