<svg width="20" height="14" viewBox="0 0 20 14" fill="none" xmlns="http://www.w3.org/2000/svg">
<path d="M1.11111 13.3333C0.7963 13.3333 0.532597 13.2267 0.320004 13.0133C0.107411 12.8 0.000744572 12.5363 3.83141e-06 12.2222C-0.000736909 11.9081 0.10593 11.6444 0.320004 11.4311C0.534078 11.2178 0.797782 11.1111 1.11111 11.1111H18.8889C19.2037 11.1111 19.4678 11.2178 19.6811 11.4311C19.8944 11.6444 20.0007 11.9081 20 12.2222C19.9993 12.5363 19.8926 12.8004 19.68 13.0144C19.4674 13.2285 19.2037 13.3348 18.8889 13.3333H1.11111ZM1.11111 7.77778C0.7963 7.77778 0.532597 7.67111 0.320004 7.45778C0.107411 7.24444 0.000744572 6.98074 3.83141e-06 6.66667C-0.000736909 6.35259 0.10593 6.08889 0.320004 5.87556C0.534078 5.66222 0.797782 5.55556 1.11111 5.55556H18.8889C19.2037 5.55556 19.4678 5.66222 19.6811 5.87556C19.8944 6.08889 20.0007 6.35259 20 6.66667C19.9993 6.98074 19.8926 7.24482 19.68 7.45889C19.4674 7.67296 19.2037 7.77926 18.8889 7.77778H1.11111ZM1.11111 2.22222C0.7963 2.22222 0.532597 2.11556 0.320004 1.90222C0.107411 1.68889 0.000744572 1.42519 3.83141e-06 1.11111C-0.000736909 0.797037 0.10593 0.533333 0.320004 0.32C0.534078 0.106667 0.797782 0 1.11111 0H18.8889C19.2037 0 19.4678 0.106667 19.6811 0.32C19.8944 0.533333 20.0007 0.797037 20 1.11111C19.9993 1.42519 19.8926 1.68926 19.68 1.90333C19.4674 2.11741 19.2037 2.2237 18.8889 2.22222H1.11111Z" fill="#242526"/>
</svg>
